# xmcd CD database file generated by LOLA_Freedb v0.9beta0
# 
# Track frame offsets:
#      150
#      11736
#      25266
#      36879
#      55392
#      73527
#      84794
#      96163
#      109121
#      122184
#      135941
#      153213
# 
# Disc length: 2268 seconds
# 
# Revision: 0 
# Processed by: cddbd v1.5.2PL0 Copyright (c) Steve Scherf et al.
# Submitted via: LOLA_Freedb v0.9beta0
# 
DISCID=9108da0c
DTITLE=Back To The Bible Quartet - This Is Our Song
DYEAR=1973
DGENRE=
TTITLE0=Back To The Bible Quartet - Blessed Assurance
TTITLE1=Back To The Bible Quartet - Leaning On The Everlasting Arms
TTITLE2=Back To The Bible Quartet - I'm Climbing Up The Mountain
TTITLE3=Back To The Bible Quartet - The King Is Coming
TTITLE4=Back To The Bible Quartet - Sweet By And By
TTITLE5=Back To The Bible Quartet - How Long Has It Been?
TTITLE6=Back To The Bible Quartet - Ye Servants of God, Your Master Proclaim
TTITLE7=Back To The Bible Quartet - Do You Think I'll Make A Soldier?
TTITLE8=Back To The Bible Quartet - Forgiveness
TTITLE9=Back To The Bible Quartet - Without Him
TTITLE10=Back To The Bible Quartet - A Pilgrim And A Stranger
TTITLE11=Back To The Bible Quartet - Nearer The Cross
EXTD=Quartet
EXTT0=
EXTT1=
EXTT2=
EXTT3=
EXTT4=
EXTT5=
EXTT6=
EXTT7=
EXTT8=
EXTT9=
EXTT10=
EXTT11=
PLAYORDER=
